<mxfile host="app.diagrams.net" agent="Mozilla/5.0 (Windows NT 10.0; Win64; x64) AppleWebKit/537.36 (KHTML, like Gecko) Chrome/135.0.0.0 Safari/537.36" version="27.0.3">
  <diagram name="Page-1" id="SEGu94tL43HgNvzpm1_3">
    <mxGraphModel dx="925" dy="1755" grid="1" gridSize="10" guides="1" tooltips="1" connect="1" arrows="1" fold="1" page="1" pageScale="1" pageWidth="827" pageHeight="1169" math="0" shadow="0">
      <root>
        <mxCell id="0" />
        <mxCell id="1" parent="0" />
        <mxCell id="fIsJkiZVpV0B-OvnmYf4-1" value="Admin" style="rounded=0;whiteSpace=wrap;html=1;" vertex="1" parent="1">
          <mxGeometry x="80" y="240" width="120" height="60" as="geometry" />
        </mxCell>
        <mxCell id="fIsJkiZVpV0B-OvnmYf4-18" value="" style="edgeStyle=orthogonalEdgeStyle;rounded=0;orthogonalLoop=1;jettySize=auto;html=1;entryX=0;entryY=0.5;entryDx=0;entryDy=0;exitX=1;exitY=0.75;exitDx=0;exitDy=0;" edge="1" parent="1" source="fIsJkiZVpV0B-OvnmYf4-3" target="fIsJkiZVpV0B-OvnmYf4-7">
          <mxGeometry relative="1" as="geometry" />
        </mxCell>
        <mxCell id="fIsJkiZVpV0B-OvnmYf4-2" value="Host" style="rounded=0;whiteSpace=wrap;html=1;" vertex="1" parent="1">
          <mxGeometry x="80" y="120" width="120" height="60" as="geometry" />
        </mxCell>
        <mxCell id="fIsJkiZVpV0B-OvnmYf4-11" value="" style="edgeStyle=orthogonalEdgeStyle;rounded=0;orthogonalLoop=1;jettySize=auto;html=1;exitX=1;exitY=0.5;exitDx=0;exitDy=0;" edge="1" parent="1" source="fIsJkiZVpV0B-OvnmYf4-3" target="fIsJkiZVpV0B-OvnmYf4-10">
          <mxGeometry relative="1" as="geometry">
            <mxPoint x="210" y="10" as="sourcePoint" />
          </mxGeometry>
        </mxCell>
        <mxCell id="fIsJkiZVpV0B-OvnmYf4-19" value="" style="edgeStyle=orthogonalEdgeStyle;rounded=0;orthogonalLoop=1;jettySize=auto;html=1;" edge="1" parent="1" source="fIsJkiZVpV0B-OvnmYf4-3" target="fIsJkiZVpV0B-OvnmYf4-10">
          <mxGeometry relative="1" as="geometry" />
        </mxCell>
        <mxCell id="fIsJkiZVpV0B-OvnmYf4-20" value="" style="edgeStyle=orthogonalEdgeStyle;rounded=0;orthogonalLoop=1;jettySize=auto;html=1;" edge="1" parent="1" source="fIsJkiZVpV0B-OvnmYf4-3" target="fIsJkiZVpV0B-OvnmYf4-10">
          <mxGeometry relative="1" as="geometry" />
        </mxCell>
        <mxCell id="fIsJkiZVpV0B-OvnmYf4-3" value="Guest" style="rounded=0;whiteSpace=wrap;html=1;" vertex="1" parent="1">
          <mxGeometry x="80" y="20" width="120" height="60" as="geometry" />
        </mxCell>
        <mxCell id="fIsJkiZVpV0B-OvnmYf4-4" value="Review and Rating" style="rounded=1;whiteSpace=wrap;html=1;" vertex="1" parent="1">
          <mxGeometry x="300" y="350" width="120" height="60" as="geometry" />
        </mxCell>
        <mxCell id="fIsJkiZVpV0B-OvnmYf4-5" value="Send notifications" style="rounded=1;whiteSpace=wrap;html=1;" vertex="1" parent="1">
          <mxGeometry x="294" y="430" width="120" height="60" as="geometry" />
        </mxCell>
        <mxCell id="fIsJkiZVpV0B-OvnmYf4-21" value="" style="edgeStyle=orthogonalEdgeStyle;rounded=0;orthogonalLoop=1;jettySize=auto;html=1;entryX=0;entryY=0.5;entryDx=0;entryDy=0;" edge="1" parent="1" target="fIsJkiZVpV0B-OvnmYf4-6">
          <mxGeometry relative="1" as="geometry">
            <mxPoint x="200" y="70" as="sourcePoint" />
            <Array as="points">
              <mxPoint x="240" y="71" />
              <mxPoint x="240" y="310" />
            </Array>
          </mxGeometry>
        </mxCell>
        <mxCell id="fIsJkiZVpV0B-OvnmYf4-23" value="" style="edgeStyle=orthogonalEdgeStyle;rounded=0;orthogonalLoop=1;jettySize=auto;html=1;entryX=0;entryY=0.5;entryDx=0;entryDy=0;" edge="1" parent="1" source="fIsJkiZVpV0B-OvnmYf4-6" target="fIsJkiZVpV0B-OvnmYf4-13">
          <mxGeometry relative="1" as="geometry">
            <mxPoint x="500" y="310" as="targetPoint" />
          </mxGeometry>
        </mxCell>
        <mxCell id="fIsJkiZVpV0B-OvnmYf4-6" value="Processs Payment" style="rounded=1;whiteSpace=wrap;html=1;" vertex="1" parent="1">
          <mxGeometry x="300" y="280" width="120" height="60" as="geometry" />
        </mxCell>
        <mxCell id="fIsJkiZVpV0B-OvnmYf4-24" value="" style="edgeStyle=orthogonalEdgeStyle;rounded=0;orthogonalLoop=1;jettySize=auto;html=1;" edge="1" parent="1" source="fIsJkiZVpV0B-OvnmYf4-7" target="fIsJkiZVpV0B-OvnmYf4-14">
          <mxGeometry relative="1" as="geometry" />
        </mxCell>
        <mxCell id="fIsJkiZVpV0B-OvnmYf4-7" value="Book Property" style="rounded=1;whiteSpace=wrap;html=1;" vertex="1" parent="1">
          <mxGeometry x="300" y="210" width="120" height="60" as="geometry" />
        </mxCell>
        <mxCell id="fIsJkiZVpV0B-OvnmYf4-8" value="Search Listings&amp;nbsp;" style="rounded=1;whiteSpace=wrap;html=1;" vertex="1" parent="1">
          <mxGeometry x="300" y="140" width="120" height="60" as="geometry" />
        </mxCell>
        <mxCell id="fIsJkiZVpV0B-OvnmYf4-9" value="ManageListings" style="rounded=1;whiteSpace=wrap;html=1;" vertex="1" parent="1">
          <mxGeometry x="300" y="70" width="120" height="60" as="geometry" />
        </mxCell>
        <mxCell id="fIsJkiZVpV0B-OvnmYf4-17" value="" style="edgeStyle=orthogonalEdgeStyle;rounded=0;orthogonalLoop=1;jettySize=auto;html=1;" edge="1" parent="1" source="fIsJkiZVpV0B-OvnmYf4-10" target="fIsJkiZVpV0B-OvnmYf4-16">
          <mxGeometry relative="1" as="geometry" />
        </mxCell>
        <mxCell id="fIsJkiZVpV0B-OvnmYf4-10" value="User Authentication" style="rounded=1;whiteSpace=wrap;html=1;" vertex="1" parent="1">
          <mxGeometry x="300" width="120" height="60" as="geometry" />
        </mxCell>
        <mxCell id="fIsJkiZVpV0B-OvnmYf4-12" value="&lt;span style=&quot;white-space: pre;&quot;&gt;&#x9;&lt;/span&gt;Review DB" style="ellipse;whiteSpace=wrap;html=1;" vertex="1" parent="1">
          <mxGeometry x="540" y="330" width="120" height="80" as="geometry" />
        </mxCell>
        <mxCell id="fIsJkiZVpV0B-OvnmYf4-13" value="Payment DB" style="ellipse;whiteSpace=wrap;html=1;" vertex="1" parent="1">
          <mxGeometry x="540" y="230" width="120" height="80" as="geometry" />
        </mxCell>
        <mxCell id="fIsJkiZVpV0B-OvnmYf4-14" value="Booking DB" style="ellipse;whiteSpace=wrap;html=1;" vertex="1" parent="1">
          <mxGeometry x="530" y="130" width="120" height="80" as="geometry" />
        </mxCell>
        <mxCell id="fIsJkiZVpV0B-OvnmYf4-15" value="Property DB" style="ellipse;whiteSpace=wrap;html=1;" vertex="1" parent="1">
          <mxGeometry x="530" y="40" width="120" height="80" as="geometry" />
        </mxCell>
        <mxCell id="fIsJkiZVpV0B-OvnmYf4-16" value="User DB&lt;div&gt;&lt;br&gt;&lt;/div&gt;" style="ellipse;whiteSpace=wrap;html=1;" vertex="1" parent="1">
          <mxGeometry x="520" y="-50" width="120" height="80" as="geometry" />
        </mxCell>
      </root>
    </mxGraphModel>
  </diagram>
</mxfile>
